<?xml version="1.0" encoding="utf-8"?>
<!-- Generator: Adobe Illustrator 25.2.1, SVG Export Plug-In . SVG Version: 6.00 Build 0)  -->
<svg version="1.1" id="Vrstva_1" xmlns="http://www.w3.org/2000/svg" xmlns:xlink="http://www.w3.org/1999/xlink" x="0px" y="0px" viewBox="0 0 841.9 595.3" style="enable-background:new 0 0 841.9 595.3;" xml:space="preserve">
	<style type="text/css">
	.st0{fill:#262626;}
</style>
	<path class="st0" d="M109.4,348.4H72.2v-105h37.5c10.6,0,19.7,2.1,27.3,6.3c7.6,4.2,13.5,10.2,17.6,18c4.1,7.8,6.2,17.2,6.2,28.1
	c0,10.9-2.1,20.3-6.2,28.2s-10,13.9-17.7,18.1C129.2,346.2,120.1,348.4,109.4,348.4z M94.4,329.3h14.1c6.6,0,12.1-1.2,16.6-3.5
	c4.5-2.3,7.9-6,10.1-10.9c2.3-4.9,3.4-11.3,3.4-19.1c0-7.8-1.1-14.1-3.4-19s-5.6-8.5-10.1-10.9c-4.5-2.3-10-3.5-16.5-3.5H94.4V329.3
	z" />
	<path class="st0" d="M206.4,243.4v104.9h-22.2V243.4H206.4z" />
	<path class="st0" d="M291.6,348.4h24.5l-22.3-40.8c0.3-0.1,0.7-0.2,1-0.4c5.7-2.7,10-6.5,13-11.5c3-5,4.5-11,4.5-18
	c0-6.9-1.5-13-4.4-18.1c-2.9-5.2-7.2-9.1-12.9-11.9c-5.6-2.8-12.4-4.2-20.3-4.2h-41.4v104.9h22.2v-37.2h16.2L291.6,348.4z
	 M255.5,261.5h15c4.3,0,7.8,0.6,10.6,1.9c2.8,1.3,4.9,3.1,6.3,5.5c1.4,2.4,2.1,5.3,2.1,8.8c0,3.4-0.7,6.3-2.1,8.7
	c-1.4,2.3-3.5,4.1-6.3,5.2c-2.8,1.2-6.3,1.8-10.6,1.8h-15V261.5z" />
	<path class="st0" d="M336,348.4v-105h70.7v18.3h-48.5v25h44.9V305h-44.9v25.1h48.7v18.3H336z" />
	<path class="st0" d="M521.1,280.1h-22.4c-0.4-2.9-1.3-5.5-2.5-7.8s-2.9-4.2-4.9-5.8c-2-1.6-4.3-2.8-6.8-3.7
	c-2.6-0.9-5.4-1.3-8.4-1.3c-5.4,0-10.2,1.4-14.2,4c-4,2.7-7.2,6.6-9.4,11.7c-2.2,5.1-3.3,11.3-3.3,18.6c0,7.5,1.1,13.8,3.3,18.9
	c2.2,5.1,5.4,8.9,9.4,11.5c4,2.6,8.7,3.9,14,3.9c3,0,5.7-0.4,8.3-1.2c2.5-0.8,4.8-1.9,6.8-3.5c2-1.5,3.6-3.4,4.9-5.6
	c1.3-2.2,2.2-4.7,2.7-7.5l22.4,0.1c-0.6,4.8-2,9.5-4.3,13.9s-5.4,8.4-9.3,11.9s-8.5,6.3-13.8,8.3c-5.3,2-11.4,3-18.1,3
	c-9.4,0-17.7-2.1-25.1-6.4c-7.4-4.2-13.2-10.4-17.4-18.4c-4.3-8-6.4-17.7-6.4-29.2c0-11.5,2.1-21.2,6.4-29.2
	c4.3-8,10.1-14.2,17.5-18.4c7.4-4.2,15.7-6.3,24.9-6.3c6.1,0,11.7,0.9,16.9,2.5c5.2,1.7,9.8,4.2,13.8,7.5c4,3.3,7.3,7.2,9.9,12
	S520.4,274.1,521.1,280.1z" />
	<!--<path class="st0" d="M653.6,263.5c-3.3,0-6-1.1-8.4-3.3s-3.5-4.8-3.5-7.8c0-3,1.2-5.6,3.5-7.8c2.3-2.2,5.1-3.3,8.3-3.3
	c3.3,0,6.1,1.1,8.4,3.3s3.5,4.8,3.5,7.8c0,3-1.2,5.6-3.5,7.8C659.7,262.4,656.9,263.5,653.6,263.5z" />-->
	<!--<polygon class="st0" points="703.1,243.4 683.9,261.7 716,261.7 716,348.4 738,348.4 738,261.7 770.1,261.7 770.1,243.3 " />-->
	<!--<polygon class="st0" points="642.6,300.8 642.6,348.4 664.5,348.4 664.5,280.1 " />-->
	<polygon class="st0" points="537.1,243.4 537.1,261.7 569.3,261.7 569.3,348.3 591.2,348.3 591.2,261.7 604,261.7 623.3,243.4 " />
</svg>