<?xml version="1.0" encoding="utf-8"?>
<!-- Generator: Adobe Illustrator 23.1.1, SVG Export Plug-In . SVG Version: 6.00 Build 0)  -->
<svg version="1.1" id="Layer_1" xmlns="http://www.w3.org/2000/svg" xmlns:xlink="http://www.w3.org/1999/xlink" x="0px" y="0px"
	 viewBox="0 0 282.2 117.2" style="enable-background:new 0 0 282.2 117.2;" xml:space="preserve">
<style type="text/css">
	.st0{fill:#262626;}
	.st1{fill:#1947FF;}
</style>
<path class="st0" d="M40,63.6H27.9V29.4h12.2c3.4,0,6.4,0.7,8.9,2c2.5,1.3,4.4,3.3,5.7,5.9s2,5.6,2,9.1c0,3.6-0.7,6.6-2,9.2
	s-3.3,4.5-5.8,5.9C46.4,62.9,43.5,63.6,40,63.6z M35.1,57.4h4.6c2.1,0,3.9-0.4,5.4-1.1c1.5-0.8,2.6-2,3.3-3.6s1.1-3.7,1.1-6.2
	s-0.4-4.6-1.1-6.2s-1.8-2.8-3.3-3.5s-3.2-1.1-5.4-1.1h-4.6V57.4z"/>
<path class="st0" d="M71.6,29.4v34.2h-7.2V29.4H71.6z"/>
<path class="st0" d="M80.3,63.6V29.4h13.5c2.6,0,4.8,0.5,6.6,1.4s3.2,2.2,4.2,3.9s1.4,3.6,1.4,5.9c0,2.3-0.5,4.2-1.5,5.8
	s-2.4,2.9-4.2,3.8s-4.1,1.3-6.7,1.3h-9v-5.8h7.9c1.4,0,2.5-0.2,3.4-0.6s1.6-1,2-1.7c0.4-0.8,0.7-1.7,0.7-2.8s-0.2-2.1-0.7-2.9
	s-1.1-1.4-2.1-1.8s-2.1-0.6-3.5-0.6h-4.9v28.3L80.3,63.6L80.3,63.6z M98.8,48l8.5,15.6h-8L91,48H98.8z"/>
<path class="st0" d="M113.8,63.6V29.4h23v6H121v8.2h14.6v6H121v8.2h15.9v6C136.9,63.6,113.8,63.6,113.8,63.6z"/>
<path class="st0" d="M174.1,41.4h-7.3c-0.1-1-0.4-1.8-0.8-2.5c-0.4-0.7-0.9-1.4-1.6-1.9c-0.6-0.5-1.4-0.9-2.2-1.2s-1.8-0.4-2.7-0.4
	c-1.8,0-3.3,0.4-4.6,1.3c-1.3,0.9-2.3,2.1-3.1,3.8s-1.1,3.7-1.1,6c0,2.4,0.4,4.5,1.1,6.1s1.8,2.9,3.1,3.8s2.8,1.3,4.6,1.3
	c1,0,1.9-0.1,2.7-0.4c0.8-0.3,1.6-0.6,2.2-1.1s1.2-1.1,1.6-1.8c0.4-0.7,0.7-1.5,0.9-2.4h7.3c-0.2,1.6-0.7,3.1-1.4,4.5
	s-1.8,2.8-3,3.9s-2.8,2-4.5,2.7s-3.7,1-5.9,1c-3.1,0-5.8-0.7-8.2-2.1s-4.3-3.4-5.7-6s-2.1-5.8-2.1-9.5s0.7-6.9,2.1-9.5
	c1.4-2.6,3.3-4.6,5.7-6c2.4-1.4,5.1-2.1,8.1-2.1c2,0,3.8,0.3,5.5,0.8c1.7,0.6,3.2,1.4,4.5,2.4c1.3,1.1,2.4,2.4,3.2,3.9
	C173.3,37.6,173.8,39.4,174.1,41.4z"/>
<path class="st0" d="M179.3,35.3v-6h28.1v6h-10.5v28.2h-7.1V35.3H179.3z"/>
<path class="st1" d="M217.2,35.9c-1.1,0-2-0.3-2.7-1.1c-0.8-0.7-1.1-1.5-1.1-2.5s0.4-1.8,1.1-2.5c0.8-0.7,1.7-1.1,2.7-1.1
	c1.1,0,2,0.4,2.7,1.1s1.1,1.5,1.1,2.5s-0.4,1.8-1.1,2.5C219.2,35.6,218.3,35.9,217.2,35.9z M213.6,63.6V40.2h7.1v23.3L213.6,63.6
	L213.6,63.6z"/>
<path class="st1" d="M227.1,35.3v-6h28.1v6h-10.5v28.2h-7.1V35.3H227.1z"/>
<g>
	<path class="st0" d="M30.4,72.6v14.6h-2.2V72.6H30.4z"/>
	<path class="st0" d="M47.8,77.3h-2.2c-0.1-0.5-0.2-0.9-0.5-1.2c-0.2-0.4-0.5-0.7-0.8-0.9s-0.7-0.4-1.1-0.6
		c-0.4-0.1-0.8-0.2-1.3-0.2c-0.8,0-1.6,0.2-2.2,0.6s-1.2,1-1.6,1.8s-0.6,1.8-0.6,3s0.2,2.2,0.6,3c0.4,0.8,0.9,1.4,1.6,1.8
		c0.7,0.4,1.4,0.6,2.2,0.6c0.5,0,0.9-0.1,1.3-0.2c0.4-0.1,0.8-0.3,1.1-0.6s0.6-0.6,0.9-0.9s0.4-0.8,0.5-1.2h2.2
		c-0.1,0.7-0.3,1.4-0.7,2s-0.8,1.1-1.3,1.6s-1.1,0.8-1.8,1s-1.4,0.4-2.2,0.4c-1.3,0-2.4-0.3-3.4-0.9s-1.8-1.5-2.3-2.6
		c-0.6-1.1-0.8-2.4-0.8-4s0.3-2.9,0.8-4c0.6-1.1,1.3-2,2.3-2.6s2.1-0.9,3.4-0.9c0.8,0,1.5,0.1,2.2,0.3s1.3,0.5,1.8,1s1,0.9,1.3,1.6
		S47.6,76.6,47.8,77.3z"/>
	<path class="st0" d="M51.3,74.5v-1.9h11.3v1.9H58v12.7h-2.2V74.5H51.3z"/>
	<path class="st0" d="M74.3,87.2V72.6h5.2c1.1,0,2.1,0.2,2.8,0.6s1.3,1,1.7,1.7c0.4,0.7,0.6,1.5,0.6,2.4S84.4,79,84,79.7
		c-0.4,0.7-0.9,1.3-1.7,1.7c-0.8,0.4-1.7,0.6-2.8,0.6h-3.6v-1.9h3.4c0.7,0,1.3-0.1,1.7-0.4s0.8-0.6,1-1s0.3-0.9,0.3-1.5
		s-0.1-1-0.3-1.5s-0.5-0.8-1-1c-0.4-0.2-1-0.4-1.8-0.4h-2.8V87L74.3,87.2L74.3,87.2z"/>
	<path class="st0" d="M88.7,87.2v-11h2.1V78h0.1c0.2-0.6,0.6-1.1,1.1-1.4s1.1-0.5,1.7-0.5c0.1,0,0.3,0,0.5,0s0.3,0,0.4,0v2
		c-0.1,0-0.2-0.1-0.4-0.1c-0.2,0-0.4-0.1-0.7-0.1c-0.5,0-0.9,0.1-1.3,0.3s-0.7,0.5-0.9,0.9S91,79.9,91,80.4v6.7L88.7,87.2L88.7,87.2
		z"/>
	<path class="st0" d="M102.8,87.4c-1,0-1.9-0.2-2.7-0.7c-0.8-0.5-1.3-1.1-1.8-2c-0.4-0.8-0.6-1.8-0.6-3s0.2-2.1,0.6-3s1-1.5,1.8-2
		s1.7-0.7,2.7-0.7s1.9,0.2,2.7,0.7s1.3,1.1,1.8,2c0.4,0.8,0.6,1.8,0.6,3c0,1.1-0.2,2.1-0.6,3c-0.4,0.8-1,1.5-1.8,2
		S103.8,87.4,102.8,87.4z M102.8,85.6c0.7,0,1.2-0.2,1.7-0.5s0.8-0.8,1-1.4s0.3-1.2,0.3-1.9s-0.1-1.3-0.3-1.9s-0.5-1.1-1-1.4
		c-0.4-0.3-1-0.5-1.7-0.5s-1.2,0.2-1.7,0.5c-0.4,0.4-0.8,0.8-1,1.4s-0.3,1.2-0.3,1.9s0.1,1.3,0.3,1.9s0.5,1.1,1,1.4
		C101.6,85.4,102.1,85.6,102.8,85.6z"/>
	<path class="st0" d="M112.1,76.2h2.1v11.6c0,0.7-0.1,1.3-0.4,1.8s-0.7,0.9-1.2,1.2s-1.2,0.4-1.9,0.4c-0.1,0-0.1,0-0.2,0
		s-0.1,0-0.2,0v-1.8c0.1,0,0.1,0,0.2,0s0.1,0,0.2,0c0.5,0,0.9-0.1,1.1-0.4s0.3-0.7,0.3-1.2V76.2L112.1,76.2z M113.2,74.6
		c-0.4,0-0.7-0.1-0.9-0.4c-0.3-0.2-0.4-0.6-0.4-0.9s0.1-0.7,0.4-0.9s0.6-0.4,0.9-0.4s0.7,0.1,0.9,0.4c0.3,0.2,0.4,0.6,0.4,0.9
		s-0.1,0.6-0.4,0.9C113.8,74.4,113.5,74.6,113.2,74.6z"/>
	<path class="st0" d="M123.7,87.4c-1.1,0-2-0.2-2.8-0.7s-1.4-1.1-1.8-1.9s-0.6-1.8-0.6-3c0-1.1,0.2-2.1,0.6-2.9s1-1.5,1.8-2
		s1.6-0.7,2.7-0.7c0.6,0,1.2,0.1,1.8,0.3c0.6,0.2,1.1,0.5,1.6,1s0.8,1,1.1,1.7c0.3,0.7,0.4,1.5,0.4,2.5v0.8h-8.7v-1.6h6.6
		c0-0.6-0.1-1.1-0.3-1.5c-0.2-0.4-0.6-0.8-1-1s-0.9-0.4-1.4-0.4c-0.6,0-1.1,0.2-1.6,0.4c-0.4,0.3-0.8,0.7-1,1.1s-0.4,1-0.4,1.5v1.2
		c0,0.7,0.1,1.3,0.4,1.9s0.6,0.9,1.1,1.2s1,0.4,1.6,0.4c0.4,0,0.8-0.1,1.1-0.2c0.3-0.1,0.6-0.3,0.9-0.5c0.2-0.2,0.4-0.5,0.6-0.9
		l2,0.4c-0.2,0.6-0.4,1.1-0.9,1.6s-0.9,0.8-1.6,1C125.2,87.2,124.5,87.4,123.7,87.4z"/>
	<path class="st0" d="M137.3,87.4c-1.1,0-2-0.2-2.7-0.7s-1.3-1.1-1.8-2s-0.6-1.8-0.6-2.9s0.2-2.1,0.6-2.9c0.4-0.8,1-1.5,1.8-2
		s1.6-0.7,2.7-0.7c0.8,0,1.6,0.2,2.2,0.5c0.6,0.3,1.2,0.7,1.6,1.3c0.4,0.6,0.6,1.2,0.7,1.9h-2.1c-0.1-0.5-0.4-0.9-0.8-1.3
		S138,78,137.3,78c-0.6,0-1.1,0.2-1.6,0.5s-0.8,0.8-1,1.3c-0.2,0.6-0.4,1.2-0.4,2s0.1,1.5,0.4,2.1c0.2,0.6,0.6,1,1,1.3
		s1,0.5,1.6,0.5c0.4,0,0.8-0.1,1.1-0.2s0.6-0.4,0.8-0.6c0.2-0.3,0.4-0.6,0.5-1h2.1c-0.1,0.7-0.3,1.3-0.7,1.9s-0.9,1-1.5,1.3
		S138.2,87.4,137.3,87.4z"/>
	<path class="st0" d="M151.1,76.2v1.7h-6v-1.7H151.1z M146.7,73.6h2.1v10.3c0,0.4,0.1,0.7,0.2,0.9c0.1,0.2,0.3,0.3,0.5,0.4
		s0.4,0.1,0.6,0.1c0.2,0,0.3,0,0.4,0c0.1,0,0.2,0,0.3-0.1l0.4,1.8c-0.1,0.1-0.3,0.1-0.5,0.2s-0.5,0.1-0.9,0.1
		c-0.6,0-1.1-0.1-1.6-0.3c-0.5-0.2-0.9-0.5-1.2-1s-0.4-1-0.4-1.6L146.7,73.6L146.7,73.6z"/>
	<path class="st0" d="M162.9,87.2V72.6h5.2c1.1,0,2.1,0.2,2.8,0.6s1.3,1,1.7,1.7s0.6,1.5,0.6,2.4s-0.2,1.7-0.6,2.4
		c-0.4,0.7-0.9,1.3-1.7,1.7c-0.8,0.4-1.7,0.6-2.8,0.6h-3.6v-1.9h3.4c0.7,0,1.3-0.1,1.7-0.4c0.4-0.2,0.8-0.6,1-1s0.3-0.9,0.3-1.5
		s-0.1-1-0.3-1.5s-0.5-0.8-1-1c-0.4-0.2-1-0.4-1.8-0.4H165V87L162.9,87.2L162.9,87.2z"/>
	<path class="st0" d="M179.4,72.6v14.6h-2.1V72.6H179.4z"/>
	<path class="st0" d="M187.4,87.4c-0.7,0-1.3-0.1-1.9-0.4s-1-0.6-1.3-1.1s-0.5-1.1-0.5-1.8c0-0.6,0.1-1.1,0.4-1.5
		c0.2-0.4,0.6-0.7,1-0.9c0.4-0.2,0.9-0.4,1.4-0.5s1-0.2,1.5-0.3c0.6-0.1,1.2-0.1,1.6-0.2s0.7-0.1,0.9-0.2s0.3-0.3,0.3-0.6v-0.1
		c0-0.6-0.2-1.1-0.5-1.4s-0.9-0.5-1.6-0.5c-0.7,0-1.3,0.2-1.7,0.5s-0.7,0.7-0.9,1.1l-2-0.4c0.2-0.7,0.6-1.2,1-1.6
		c0.5-0.4,1-0.7,1.6-0.9c0.6-0.2,1.2-0.3,1.9-0.3c0.4,0,0.9,0.1,1.4,0.2s0.9,0.3,1.4,0.6c0.4,0.3,0.8,0.7,1.1,1.2s0.4,1.2,0.4,1.9
		v7.2h-2.1v-1.5h-0.1c-0.1,0.3-0.3,0.5-0.6,0.8s-0.6,0.5-1.1,0.7C188.5,87.3,187.9,87.4,187.4,87.4z M187.8,85.7
		c0.6,0,1.1-0.1,1.5-0.3c0.4-0.2,0.7-0.5,1-0.9c0.2-0.4,0.3-0.8,0.3-1.2v-1.4c-0.1,0.1-0.2,0.2-0.4,0.2s-0.5,0.1-0.7,0.2
		s-0.5,0.1-0.8,0.1s-0.5,0.1-0.6,0.1c-0.4,0.1-0.8,0.1-1.1,0.3c-0.3,0.1-0.6,0.3-0.8,0.5s-0.3,0.5-0.3,0.9c0,0.5,0.2,0.9,0.6,1.2
		C186.7,85.6,187.2,85.7,187.8,85.7z"/>
	<path class="st0" d="M202.4,76.2v1.7h-6v-1.7H202.4z M198,73.6h2.1v10.3c0,0.4,0.1,0.7,0.2,0.9c0.1,0.2,0.3,0.3,0.5,0.4
		s0.4,0.1,0.6,0.1c0.2,0,0.3,0,0.4,0c0.1,0,0.2,0,0.3-0.1l0.4,1.8c-0.1,0.1-0.3,0.1-0.5,0.2s-0.5,0.1-0.9,0.1
		c-0.6,0-1.1-0.1-1.6-0.3c-0.5-0.2-0.9-0.5-1.2-1s-0.4-1-0.4-1.6L198,73.6L198,73.6z"/>
	<path class="st0" d="M212.1,76.2v1.7h-6.2v-1.7H212.1z M207.6,87.2V75c0-0.7,0.1-1.2,0.4-1.7s0.7-0.8,1.2-1s1-0.3,1.6-0.3
		c0.4,0,0.8,0,1.1,0.1s0.5,0.1,0.7,0.2l-0.5,1.7c-0.1,0-0.2-0.1-0.4-0.1s-0.4-0.1-0.6-0.1c-0.5,0-0.9,0.1-1.1,0.4
		c-0.2,0.3-0.3,0.6-0.3,1.1v11.9H207.6L207.6,87.2z"/>
	<path class="st0" d="M220.4,87.4c-1,0-1.9-0.2-2.7-0.7s-1.4-1.1-1.8-2c-0.4-0.8-0.6-1.8-0.6-3s0.2-2.1,0.6-3s1-1.5,1.8-2
		s1.7-0.7,2.7-0.7s1.9,0.2,2.7,0.7s1.4,1.1,1.8,2c0.4,0.8,0.6,1.8,0.6,3c0,1.1-0.2,2.1-0.6,3c-0.4,0.8-1,1.5-1.8,2
		S221.4,87.4,220.4,87.4z M220.4,85.6c0.7,0,1.2-0.2,1.6-0.5s0.8-0.8,1-1.4s0.3-1.2,0.3-1.9s-0.1-1.3-0.3-1.9s-0.5-1.1-1-1.4
		c-0.4-0.3-1-0.5-1.6-0.5c-0.7,0-1.2,0.2-1.7,0.5c-0.4,0.4-0.8,0.8-1,1.4s-0.3,1.2-0.3,1.9s0.1,1.3,0.3,1.9s0.5,1.1,1,1.4
		S219.8,85.6,220.4,85.6z"/>
	<path class="st0" d="M229.8,87.2v-11h2.1V78h0.1c0.2-0.6,0.6-1.1,1.1-1.4s1.1-0.5,1.7-0.5c0.1,0,0.3,0,0.5,0s0.3,0,0.4,0v2
		c-0.1,0-0.2-0.1-0.4-0.1s-0.4-0.1-0.6-0.1c-0.5,0-0.9,0.1-1.3,0.3s-0.7,0.5-0.9,0.9S232,80,232,80.5v6.7H229.8L229.8,87.2z"/>
	<path class="st0" d="M239.5,87.2v-11h2V78h0.1c0.2-0.6,0.6-1.1,1.1-1.4s1.1-0.5,1.9-0.5c0.7,0,1.3,0.2,1.8,0.5s0.9,0.8,1.1,1.4h0.1
		c0.3-0.6,0.7-1.1,1.2-1.4s1.2-0.5,2-0.5c1,0,1.8,0.3,2.4,0.9c0.6,0.6,0.9,1.6,0.9,2.8v7.3H252V80c0-0.7-0.2-1.3-0.6-1.6
		c-0.4-0.3-0.9-0.5-1.4-0.5c-0.7,0-1.2,0.2-1.6,0.6c-0.4,0.4-0.6,1-0.6,1.6V87h-2.1v-7.2c0-0.6-0.2-1.1-0.6-1.4
		c-0.4-0.4-0.9-0.5-1.4-0.5c-0.4,0-0.8,0.1-1.1,0.3s-0.6,0.5-0.8,0.9s-0.3,0.8-0.3,1.3v6.7L239.5,87.2L239.5,87.2z"/>
</g>
</svg>
