<?xml version="1.0" encoding="utf-8"?>
<!-- Generator: Adobe Illustrator 25.2.1, SVG Export Plug-In . SVG Version: 6.00 Build 0)  -->
<svg version="1.1" id="Vrstva_1" xmlns="http://www.w3.org/2000/svg" xmlns:xlink="http://www.w3.org/1999/xlink" x="0px" y="0px"
	 viewBox="0 0 841.9 595.3" style="enable-background:new 0 0 841.9 595.3;" xml:space="preserve">
<style type="text/css">
	.st0{fill:#262626;}
	.st1{fill:#0038FF;}
</style>
<g>
	<rect x="71.2" y="326.7" class="st0" width="6.8" height="44.7"/>
	<path class="st0" d="M122.9,360.7c-0.7,1.1-1.6,2-2.6,2.8c-1,0.8-2.2,1.4-3.5,1.7c-1.3,0.4-2.6,0.6-4,0.6c-2.5,0-4.9-0.6-6.9-1.9
		c-2.1-1.3-3.7-3.2-4.8-5.7c-1.2-2.5-1.8-5.6-1.8-9.2c0-3.6,0.6-6.7,1.8-9.1s2.8-4.4,4.8-5.7c2-1.3,4.3-1.9,6.9-1.9
		c1.4,0,2.8,0.2,4.1,0.6c1.3,0.4,2.5,1,3.5,1.8c1,0.8,1.9,1.7,2.6,2.8c0.7,1.1,1.2,2.4,1.5,3.8h6.8c-0.4-2.4-1.1-4.6-2.2-6.4
		c-1.1-1.9-2.4-3.4-4.1-4.8c-1.7-1.3-3.5-2.3-5.6-3c-2.1-0.7-4.3-1-6.6-1c-3.9,0-7.3,0.9-10.3,2.8c-3,1.8-5.4,4.5-7.2,7.9
		c-1.8,3.4-2.6,7.5-2.6,12.3c0,4.8,0.9,8.8,2.6,12.3c1.8,3.4,4.1,6.1,7.2,7.9c3,1.8,6.5,2.8,10.3,2.8c2.5,0,4.7-0.4,6.8-1.1
		c2.1-0.7,3.9-1.8,5.6-3.1c1.6-1.3,2.9-2.9,4-4.8c1-1.8,1.8-3.9,2.1-6l-6.8,0C124.2,358.3,123.7,359.6,122.9,360.7z"/>
	<polygon class="st0" points="142,332.5 155.9,332.5 155.9,371.4 162.6,371.4 162.6,332.5 176.5,332.5 176.5,326.7 142,326.7 	"/>
	<path class="st0" d="M237.2,328.6c-2.3-1.3-5.2-1.9-8.6-1.9h-15.9v44.6v0h6.7v-15.7h9.1c3.5,0,6.3-0.6,8.6-1.9c2.3-1.3,4-3,5.2-5.2
		c1.1-2.2,1.7-4.6,1.7-7.4c0-2.7-0.6-5.2-1.7-7.4C241.2,331.6,239.5,329.9,237.2,328.6z M236.3,345.7c-0.6,1.3-1.6,2.4-3,3.1
		c-1.4,0.8-3.2,1.1-5.3,1.1h-8.5v-17.4h8.4c2.2,0,4.1,0.4,5.4,1.1c1.4,0.7,2.4,1.8,3,3.1c0.6,1.3,1,2.8,1,4.5
		C237.2,342.9,236.9,344.4,236.3,345.7z"/>
	<path class="st0" d="M272,337.3c-1.9,0-3.7,0.5-5.3,1.6c-1.5,1-2.6,2.5-3.2,4.3h-0.3v-5.3h-6.3v33.5h6.5v-20.4c0-1.5,0.3-2.8,1-3.9
		c0.7-1.1,1.7-2,2.9-2.7c1.2-0.6,2.6-1,4.1-1c0.6,0,1.3,0.1,2,0.2c0.6,0.1,1.1,0.2,1.4,0.2v-6.2c-0.3-0.1-0.8-0.1-1.3-0.1
		C272.9,337.3,272.4,337.3,272,337.3z"/>
	<path class="st0" d="M308.4,339.6c-2.3-1.4-5.1-2.1-8.2-2.1c-3.1,0-5.9,0.7-8.2,2.1c-2.4,1.4-4.2,3.4-5.5,6s-1.9,5.6-1.9,9.1
		c0,3.5,0.6,6.5,1.9,9.1c1.3,2.6,3.1,4.6,5.5,6c2.3,1.4,5.1,2.1,8.2,2.1c3.2,0,5.9-0.7,8.2-2.1c2.4-1.4,4.2-3.5,5.5-6
		c1.3-2.6,1.9-5.6,1.9-9.1c0-3.5-0.6-6.5-1.9-9.1C312.5,343.1,310.7,341,308.4,339.6z M308.2,360.6c-0.6,1.8-1.6,3.2-3,4.3
		c-1.4,1.1-3,1.6-5.1,1.6c-2.1,0-3.7-0.6-5.1-1.6c-1.3-1.1-2.3-2.5-3-4.3c-0.6-1.8-1-3.7-1-5.9c0-2.1,0.3-4.1,1-5.9
		c0.6-1.8,1.6-3.2,3-4.3c1.4-1.1,3-1.6,5.1-1.6c2,0,3.7,0.6,5.1,1.6c1.4,1.1,2.3,2.5,3,4.3c0.6,1.8,1,3.7,1,5.9
		C309.2,356.9,308.9,358.9,308.2,360.6z"/>
	<path class="st0" d="M332.1,324.9c-1.1,0-2.1,0.4-2.9,1.1c-0.8,0.8-1.2,1.7-1.2,2.8c0,1,0.4,2,1.2,2.7c0.8,0.8,1.8,1.1,2.9,1.1
		c1.1,0,2.1-0.4,2.9-1.1c0.8-0.8,1.2-1.7,1.2-2.7c0-1.1-0.4-2-1.2-2.8S333.2,324.9,332.1,324.9z"/>
	<path class="st0" d="M328.8,337.9v35.6c0,1.6-0.3,2.8-1,3.6c-0.7,0.8-1.8,1.2-3.3,1.2c-0.2,0-0.4,0-0.5,0c-0.2,0-0.3,0-0.5,0v5.6
		c0.2,0,0.5,0,0.7,0c0.2,0,0.4,0,0.6,0c2.3,0,4.3-0.4,5.9-1.2c1.6-0.8,2.8-2,3.6-3.5c0.8-1.5,1.2-3.4,1.2-5.7v-35.6H328.8
		L328.8,337.9z"/>
	<path class="st0" d="M374.3,341.3c-1.4-1.4-3-2.3-4.8-2.9c-1.8-0.6-3.6-0.9-5.5-0.9c-3.1,0-5.8,0.7-8.1,2.2
		c-2.3,1.5-4.1,3.5-5.4,6.1c-1.3,2.6-1.9,5.6-1.9,9.1c0,3.5,0.6,6.5,1.9,9.1c1.3,2.6,3.1,4.6,5.5,6c2.4,1.4,5.2,2.1,8.5,2.1
		c2.5,0,4.6-0.4,6.6-1.2c1.9-0.7,3.5-1.8,4.8-3.2c1.3-1.4,2.1-2.9,2.6-4.8l-6.2-1.1c-0.4,1-1,1.9-1.7,2.6c-0.7,0.7-1.6,1.2-2.6,1.6
		c-1,0.3-2.1,0.5-3.4,0.5c-1.9,0-3.6-0.4-5-1.2c-1.4-0.8-2.5-2-3.3-3.6c-0.7-1.4-1.1-3.2-1.2-5.3h23.8v-2.3c0-3-0.4-5.6-1.2-7.7
		C376.8,344.4,375.7,342.7,374.3,341.3z M355.1,351.6c0.1-1.4,0.4-2.8,1-4.1c0.7-1.4,1.8-2.6,3.1-3.5c1.4-0.9,2.9-1.4,4.8-1.4
		c1.7,0,3.2,0.4,4.4,1.2c1.3,0.8,2.2,1.8,2.9,3.2c0.7,1.4,1,2.9,1,4.6H355.1z"/>
	<path class="st0" d="M412.2,363.9c-0.7,0.9-1.5,1.5-2.5,2c-1,0.5-2.1,0.7-3.4,0.7c-1.9,0-3.4-0.5-4.8-1.5c-1.4-1-2.4-2.3-3.2-4.1
		c-0.7-1.8-1.1-3.9-1.1-6.3c0-2.4,0.4-4.5,1.1-6.2c0.7-1.8,1.8-3.1,3.2-4.1s2.9-1.4,4.8-1.4c2.1,0,3.7,0.6,5,1.7
		c1.3,1.1,2.1,2.5,2.4,4.1h6.4c-0.2-2.2-1-4.2-2.2-5.9c-1.2-1.7-2.8-3-4.8-3.9c-2-1-4.3-1.4-6.8-1.4c-3.2,0-5.9,0.7-8.2,2.2
		c-2.3,1.5-4.1,3.5-5.4,6.1c-1.3,2.6-1.9,5.6-1.9,9c0,3.3,0.6,6.3,1.9,8.9c1.3,2.6,3,4.6,5.4,6.1c2.3,1.5,5.1,2.2,8.4,2.2
		c2.6,0,5-0.4,6.9-1.4c2-1,3.6-2.3,4.7-4c1.2-1.7,1.9-3.6,2.1-5.8h-6.4C413.3,362,412.9,363,412.2,363.9z"/>
	<path class="st0" d="M446.9,365.9c-0.4,0.1-0.9,0.1-1.4,0.1c-0.7,0-1.4-0.1-2-0.3c-0.6-0.2-1.1-0.6-1.5-1.3
		c-0.4-0.6-0.6-1.6-0.6-2.9v-18.4h6.9v-5.3h-6.9v-8H435v8h-4.9v5.3h4.9v19.7c0,2,0.5,3.7,1.4,5c0.9,1.4,2.1,2.3,3.6,3
		c1.5,0.6,3.1,1,4.8,0.9c1,0,1.9-0.1,2.6-0.2c0.7-0.2,1.3-0.3,1.6-0.5l-1.2-5.4C447.7,365.8,447.3,365.8,446.9,365.9z"/>
	<path class="st0" d="M509.2,328.6c-2.3-1.3-5.2-1.9-8.6-1.9h-15.9v44.6v0h6.7v-15.7h9.1c3.5,0,6.3-0.6,8.6-1.9c2.3-1.3,4-3,5.2-5.2
		c1.1-2.2,1.7-4.6,1.7-7.4c0-2.7-0.6-5.2-1.7-7.4C513.2,331.6,511.5,329.9,509.2,328.6z M508.3,345.7c-0.6,1.3-1.6,2.4-3,3.1
		c-1.4,0.8-3.2,1.1-5.3,1.1h-8.5v-17.4h8.4c2.2,0,4.1,0.4,5.4,1.1c1.4,0.7,2.4,1.8,3,3.1c0.6,1.3,1,2.8,1,4.5
		C509.2,342.9,508.9,344.4,508.3,345.7z"/>
	<rect x="528.9" y="326.7" class="st0" width="6.5" height="44.7"/>
	<path class="st0" d="M571.8,339.6c-1.3-0.8-2.7-1.4-4.2-1.7c-1.5-0.3-2.9-0.5-4.3-0.5c-2,0-3.9,0.3-5.8,0.9
		c-1.8,0.6-3.4,1.5-4.9,2.7c-1.4,1.3-2.5,2.9-3.2,4.9l6.1,1.4c0.5-1.2,1.4-2.2,2.6-3.2c1.3-1,3-1.4,5.2-1.4c2.1,0,3.7,0.5,4.8,1.6
		c1.1,1,1.6,2.5,1.6,4.4v0.2c0,0.8-0.3,1.4-0.9,1.7c-0.6,0.4-1.5,0.6-2.7,0.8c-1.3,0.2-2.9,0.3-4.9,0.6c-1.6,0.2-3.1,0.5-4.7,0.8
		c-1.5,0.4-2.9,0.9-4.1,1.6c-1.2,0.7-2.2,1.7-2.9,2.9c-0.7,1.2-1.1,2.8-1.1,4.7c0,2.2,0.5,4,1.5,5.6c1,1.5,2.4,2.7,4.1,3.5
		c1.7,0.8,3.7,1.2,5.8,1.2c1.8,0,3.4-0.2,4.7-0.8c1.3-0.5,2.4-1.2,3.3-2c0.9-0.8,1.5-1.7,1.9-2.5h0.2v4.6h6.4v-22.2
		c0-2.4-0.4-4.4-1.3-6C574.2,341.6,573.1,340.4,571.8,339.6z M569.8,359.3c0,1.3-0.3,2.5-1,3.7c-0.7,1.1-1.7,2.1-2.9,2.8
		c-1.3,0.7-2.8,1.1-4.6,1.1c-1.8,0-3.3-0.4-4.6-1.3c-1.2-0.8-1.8-2-1.8-3.7c0-1.2,0.3-2.1,0.9-2.8c0.6-0.7,1.4-1.3,2.5-1.6
		c1-0.4,2.2-0.6,3.5-0.8c0.5-0.1,1.2-0.2,2-0.3c0.8-0.1,1.6-0.2,2.5-0.4c0.9-0.1,1.6-0.3,2.3-0.5c0.7-0.2,1.1-0.4,1.4-0.6V359.3z"/>
	<path class="st0" d="M604.5,365.9c-0.4,0.1-0.9,0.1-1.4,0.1c-0.7,0-1.4-0.1-2-0.3c-0.6-0.2-1.1-0.6-1.5-1.3
		c-0.4-0.6-0.6-1.6-0.6-2.9v-18.4h6.9v-5.3h-6.9v-8h-6.5v8h-4.9v5.3h4.9v19.7c0,2,0.5,3.7,1.4,5c0.9,1.4,2.1,2.3,3.6,3
		c1.5,0.6,3.1,1,4.8,0.9c1,0,1.9-0.1,2.6-0.2s1.3-0.3,1.6-0.5l-1.2-5.4C605.2,365.8,604.9,365.8,604.5,365.9z"/>
	<path class="st0" d="M632.1,324.6c-1.8,0-3.4,0.3-4.9,1c-1.5,0.7-2.7,1.8-3.7,3.1c-0.9,1.4-1.4,3.1-1.4,5.2v3.9h-5.2v5.3h5.2v28.2
		h6.5v-28.2h7.2v-5.3h-7.2v-3c0-1.5,0.3-2.6,1-3.4c0.7-0.8,1.8-1.2,3.4-1.2c0.7,0,1.3,0.1,1.8,0.2c0.5,0.1,0.9,0.2,1.2,0.3l1.5-5.3
		c-0.4-0.2-1.1-0.4-2.1-0.6C634.5,324.7,633.4,324.6,632.1,324.6z"/>
	<path class="st0" d="M669.6,339.6c-2.3-1.4-5.1-2.1-8.2-2.1c-3.1,0-5.9,0.7-8.2,2.1c-2.4,1.4-4.2,3.4-5.5,6
		c-1.3,2.6-1.9,5.6-1.9,9.1c0,3.5,0.6,6.5,1.9,9.1c1.3,2.6,3.1,4.6,5.5,6c2.3,1.4,5.1,2.1,8.2,2.1c3.1,0,5.9-0.7,8.2-2.1
		c2.4-1.4,4.2-3.5,5.5-6c1.3-2.6,1.9-5.6,1.9-9.1c0-3.5-0.6-6.5-1.9-9.1C673.7,343.1,671.9,341,669.6,339.6z M669.4,360.6
		c-0.6,1.8-1.6,3.2-3,4.3c-1.4,1.1-3,1.6-5.1,1.6c-2.1,0-3.7-0.6-5.1-1.6c-1.3-1.1-2.3-2.5-3-4.3c-0.6-1.8-1-3.7-1-5.9
		c0-2.1,0.3-4.1,1-5.9c0.6-1.8,1.6-3.2,3-4.3c1.4-1.1,3-1.6,5.1-1.6c2,0,3.7,0.6,5.1,1.6c1.4,1.1,2.3,2.5,3,4.3c0.6,1.8,1,3.7,1,5.9
		C670.4,356.9,670.1,358.9,669.4,360.6z"/>
	<path class="st0" d="M705.4,337.3c-1.9,0-3.7,0.5-5.3,1.6c-1.5,1-2.6,2.5-3.2,4.3h-0.3v-5.3h-6.3v33.5h6.5v-20.4
		c0-1.5,0.3-2.8,1-3.9c0.7-1.1,1.7-2,2.9-2.7c1.2-0.6,2.6-1,4.1-1c0.6,0,1.3,0.1,2,0.2c0.6,0.1,1.1,0.2,1.4,0.2v-6.2
		c-0.3-0.1-0.8-0.1-1.3-0.1C706.3,337.3,705.8,337.3,705.4,337.3z"/>
	<path class="st0" d="M762.5,340.3c-1.9-1.9-4.4-2.9-7.5-2.9c-2.4,0-4.5,0.5-6.2,1.6c-1.8,1.1-3,2.5-3.8,4.3h-0.3
		c-0.7-1.8-1.8-3.3-3.4-4.3c-1.5-1-3.4-1.6-5.6-1.6c-2.2,0-4.1,0.5-5.7,1.6c-1.6,1-2.7,2.5-3.4,4.3h-0.4v-5.5h-6.3v33.5v0h6.5v-20.7
		c0-1.5,0.3-2.8,1-4c0.6-1.2,1.5-2.1,2.5-2.7c1-0.6,2.2-1,3.4-1c1.8,0,3.3,0.6,4.4,1.7c1.1,1.1,1.7,2.6,1.7,4.4v22.3h6.5V350
		c0-2,0.6-3.7,1.8-5c1.2-1.3,2.8-2,4.9-2c1.7,0,3.2,0.5,4.4,1.5c1.2,1,1.8,2.7,1.8,4.9v21.9h6.5v-22.5
		C765.4,345.1,764.4,342.2,762.5,340.3z"/>
</g>
<path class="st0" d="M107.4,299H70.1V194h37.5c10.6,0,19.7,2.1,27.3,6.3c7.6,4.2,13.5,10.2,17.6,18c4.1,7.8,6.2,17.2,6.2,28.1
	c0,10.9-2.1,20.3-6.2,28.2c-4.1,7.9-10,13.9-17.7,18.1C127.2,296.9,118,299,107.4,299z M92.3,280h14.1c6.6,0,12.1-1.2,16.6-3.5
	c4.5-2.3,7.9-6,10.1-10.9c2.3-4.9,3.4-11.3,3.4-19.1c0-7.8-1.1-14.1-3.4-19c-2.3-4.9-5.6-8.5-10.1-10.9c-4.5-2.3-10-3.5-16.5-3.5
	H92.3V280z"/>
<path class="st0" d="M204.4,194V299h-22.2V194H204.4z"/>
<path class="st0" d="M289.6,299h24.5l-22.3-40.8c0.3-0.1,0.7-0.2,1-0.4c5.7-2.7,10-6.5,13-11.5c3-5,4.5-11,4.5-18
	c0-6.9-1.5-13-4.4-18.1c-2.9-5.2-7.2-9.1-12.9-11.9c-5.6-2.8-12.4-4.2-20.3-4.2h-41.4V299h22.2v-37.2h16.2L289.6,299z M253.5,212.2
	h15c4.3,0,7.8,0.6,10.6,1.9c2.8,1.3,4.9,3.1,6.3,5.5c1.4,2.4,2.1,5.3,2.1,8.8c0,3.4-0.7,6.3-2.1,8.7c-1.4,2.3-3.5,4.1-6.3,5.2
	c-2.8,1.2-6.3,1.8-10.6,1.8h-15V212.2z"/>
<path class="st0" d="M334,299V194h70.7v18.3h-48.5v25H401v18.3h-44.9v25.1h48.7V299H334z"/>
<path class="st0" d="M519,230.8h-22.4c-0.4-2.9-1.3-5.5-2.5-7.8c-1.3-2.3-2.9-4.2-4.9-5.8c-2-1.6-4.3-2.8-6.8-3.7
	c-2.6-0.9-5.4-1.3-8.4-1.3c-5.4,0-10.2,1.4-14.2,4c-4,2.7-7.2,6.6-9.4,11.7c-2.2,5.1-3.3,11.3-3.3,18.6c0,7.5,1.1,13.8,3.3,18.9
	s5.4,8.9,9.4,11.5c4,2.6,8.7,3.9,14,3.9c3,0,5.7-0.4,8.3-1.2c2.5-0.8,4.8-1.9,6.8-3.5c2-1.5,3.6-3.4,4.9-5.6
	c1.3-2.2,2.2-4.7,2.7-7.5l22.4,0.1c-0.6,4.8-2,9.5-4.3,13.9s-5.4,8.4-9.3,11.9s-8.5,6.3-13.8,8.3c-5.3,2-11.4,3-18.1,3
	c-9.4,0-17.7-2.1-25.1-6.4c-7.4-4.2-13.2-10.4-17.4-18.4c-4.3-8-6.4-17.7-6.4-29.2c0-11.5,2.1-21.2,6.4-29.2
	c4.3-8,10.1-14.2,17.5-18.4c7.4-4.2,15.7-6.3,24.9-6.3c6.1,0,11.7,0.9,16.9,2.5c5.2,1.7,9.8,4.2,13.8,7.5c4,3.3,7.3,7.2,9.9,12
	C516.7,219.3,518.3,224.7,519,230.8z"/>
<path class="st1" d="M651.6,214.1c-3.3,0-6-1.1-8.4-3.3c-2.3-2.2-3.5-4.8-3.5-7.8c0-3,1.2-5.6,3.5-7.8c2.3-2.2,5.1-3.3,8.3-3.3
	c3.3,0,6.1,1.1,8.4,3.3c2.3,2.2,3.5,4.8,3.5,7.8c0,3-1.2,5.6-3.5,7.8C657.6,213.1,654.8,214.1,651.6,214.1z"/>
<polygon class="st1" points="701.1,194 681.8,212.3 714,212.3 714,299 735.9,299 735.9,212.3 768.1,212.3 768.1,193.9 "/>
<polygon class="st1" points="640.6,251.4 640.6,299 662.4,299 662.4,230.7 "/>
<polygon class="st0" points="535.1,194 535.1,212.3 567.2,212.3 567.2,299 589.1,299 589.1,212.3 602,212.3 621.3,194 "/>
</svg>
